<svg width="53" height="53" viewBox="0 0 53 53" fill="none" xmlns="http://www.w3.org/2000/svg">
<g filter="url(#filter0_bddddd_520_24303)">
<rect width="51" height="51" rx="25" fill="#FDFAEF"/>
<rect x="0.75" y="0.75" width="49.5" height="49.5" rx="24.25" stroke="#0F0F0F" stroke-width="1.5"/>
</g>
<circle cx="25.5" cy="25.5" r="24.75" fill="#FDFAEF" stroke="#0F0F0F" stroke-width="1.5"/>
<path fill-rule="evenodd" clip-rule="evenodd" d="M34.1212 8.52407C32.5239 9.25516 35.1318 9.19396 35.2713 10.7377C35.4347 12.5362 33.0673 15.2836 31.2152 16.13C25.7848 18.6152 14.5104 13.4201 8.97873 15.9497C3.98073 18.2342 1.42053 24.1061 1.49881 28.7402C1.52253 31.0523 2.38264 32.96 3.87873 34.0208C5.1471 34.9013 6.74161 35.0339 8.24101 34.3505C12.603 32.3548 13.7115 27.9586 13.4736 25.3202C13.392 24.4294 12.9771 22.1582 10.8963 23.1101C10.1349 23.4602 9.4311 24.1673 9.51958 25.109C9.59098 25.901 10.1826 24.8642 11.019 24.4802C11.5767 24.2252 11.9745 25.4084 12.0528 26.2652C12.2364 28.3019 10.3392 30.9773 8.53707 31.8002C7.34698 32.3482 5.61298 32.4767 4.62027 31.7258C3.80427 31.1714 2.92018 29.876 2.90335 27.9245C2.83527 24.2662 4.94667 20.7098 8.39784 19.1323C13.0149 17.0174 20.7398 20.3596 21.0966 20.4922L21.2022 20.5024C21.2022 20.5024 14.1302 40.4572 14.4974 44.5408C14.7524 47.3389 17.1902 49.1678 17.0543 47.6824C16.6973 43.7419 24.3981 20.771 24.3981 20.771L24.5307 20.7982C24.8229 20.8153 25.17 20.8355 25.4862 20.839C26.9448 20.89 28.781 20.465 30.5081 19.6762C33.5776 18.2722 37.0833 14.9978 36.7676 11.4823C36.6138 9.79576 35.8216 7.74887 34.1212 8.52407ZM31.7523 33.572C32.1904 33.3713 32.6185 32.9528 33.0306 32.4061C32.959 32.7697 32.9281 33.0791 32.9518 33.3269C33.1561 35.5745 35.0706 36.8806 34.8799 34.7858C34.7613 33.4529 41.1534 20.6111 41.9931 20.2271C41.9931 20.2271 38.7528 27.6662 38.9709 30.0662C39.1641 32.2118 40.0347 33.3338 41.0239 32.8817C43.5336 31.7324 48.1335 20.6384 48.5823 19.4789C49.0316 18.2888 48.2427 18.3533 47.9428 19.1456C46.0293 23.9801 42.7721 30.5936 41.2485 31.29C40.0827 31.8239 45.2433 20.5565 45.1179 19.1555C44.9919 17.7584 44.3289 16.5477 43.4415 16.9559C42.6087 17.3366 38.7225 24.2351 38.4535 24.7145C38.559 24.521 39.2049 23.2901 39.0894 22.0049C38.8314 19.1522 36.8796 18.9143 36.9711 19.9139C37.0627 20.9339 36.5463 22.6442 35.853 24.5279C35.7841 24.6161 35.7201 24.7283 35.6686 24.8612C33.928 29.2979 32.9551 31.9808 31.7383 32.5346C31.6128 32.5963 31.3237 32.6063 31.2385 32.5555C31.9425 30.9812 32.3164 29.8559 32.2689 29.339C32.0512 26.9318 29.6338 29.1146 29.8411 31.4335C29.9365 32.4671 30.2289 33.0791 30.2289 33.0791C30.2289 33.0791 27.7672 37.7134 26.2711 38.3968C24.0646 39.4069 27.4545 27.2447 31.6674 25.3204C32.8095 24.7967 32.9758 24.3037 32.8572 24.1507C32.1126 23.2429 31.0039 22.6478 29.5828 23.2973C26.8153 24.5621 22.4463 32.3107 22.9087 37.4375C23.1807 40.4605 24.9318 40.2494 25.9483 39.7838L26.1999 39.6683C26.2237 39.6275 26.2744 39.604 26.3254 39.5831C26.3494 39.5696 26.3764 39.5591 26.4004 39.5188C27.7738 38.6546 29.1574 36.7202 30.2458 34.735C30.45 34.3436 30.562 34.1159 30.562 34.1159C30.6505 33.956 30.7387 33.7658 30.8065 33.6163C31.0243 33.6941 31.3708 33.7454 31.7523 33.572Z" fill="#0F0F0F"/>
<defs>
<filter id="filter0_bddddd_520_24303" x="-21.165" y="-21.165" width="93.33" height="93.33" filterUnits="userSpaceOnUse" color-interpolation-filters="sRGB">
<feFlood flood-opacity="0" result="BackgroundImageFix"/>
<feGaussianBlur in="BackgroundImageFix" stdDeviation="10.5825"/>
<feComposite in2="SourceAlpha" operator="in" result="effect1_backgroundBlur_520_24303"/>
<feColorMatrix in="SourceAlpha" type="matrix" values="0 0 0 0 0 0 0 0 0 0 0 0 0 0 0 0 0 0 127 0" result="hardAlpha"/>
<feOffset dx="0.255" dy="0.255"/>
<feComposite in2="hardAlpha" operator="out"/>
<feColorMatrix type="matrix" values="0 0 0 0 0.027451 0 0 0 0 0.0431373 0 0 0 0 0.117647 0 0 0 1 0"/>
<feBlend mode="normal" in2="effect1_backgroundBlur_520_24303" result="effect2_dropShadow_520_24303"/>
<feColorMatrix in="SourceAlpha" type="matrix" values="0 0 0 0 0 0 0 0 0 0 0 0 0 0 0 0 0 0 127 0" result="hardAlpha"/>
<feOffset dx="0.51" dy="0.51"/>
<feComposite in2="hardAlpha" operator="out"/>
<feColorMatrix type="matrix" values="0 0 0 0 0.027451 0 0 0 0 0.0431373 0 0 0 0 0.117647 0 0 0 1 0"/>
<feBlend mode="normal" in2="effect2_dropShadow_520_24303" result="effect3_dropShadow_520_24303"/>
<feColorMatrix in="SourceAlpha" type="matrix" values="0 0 0 0 0 0 0 0 0 0 0 0 0 0 0 0 0 0 127 0" result="hardAlpha"/>
<feOffset dx="0.765" dy="0.765"/>
<feComposite in2="hardAlpha" operator="out"/>
<feColorMatrix type="matrix" values="0 0 0 0 0.027451 0 0 0 0 0.0431373 0 0 0 0 0.117647 0 0 0 1 0"/>
<feBlend mode="normal" in2="effect3_dropShadow_520_24303" result="effect4_dropShadow_520_24303"/>
<feColorMatrix in="SourceAlpha" type="matrix" values="0 0 0 0 0 0 0 0 0 0 0 0 0 0 0 0 0 0 127 0" result="hardAlpha"/>
<feOffset dx="1.02" dy="1.02"/>
<feComposite in2="hardAlpha" operator="out"/>
<feColorMatrix type="matrix" values="0 0 0 0 0.027451 0 0 0 0 0.0431373 0 0 0 0 0.117647 0 0 0 1 0"/>
<feBlend mode="normal" in2="effect4_dropShadow_520_24303" result="effect5_dropShadow_520_24303"/>
<feColorMatrix in="SourceAlpha" type="matrix" values="0 0 0 0 0 0 0 0 0 0 0 0 0 0 0 0 0 0 127 0" result="hardAlpha"/>
<feOffset dx="1.275" dy="1.275"/>
<feComposite in2="hardAlpha" operator="out"/>
<feColorMatrix type="matrix" values="0 0 0 0 0.027451 0 0 0 0 0.0431373 0 0 0 0 0.117647 0 0 0 1 0"/>
<feBlend mode="normal" in2="effect5_dropShadow_520_24303" result="effect6_dropShadow_520_24303"/>
<feBlend mode="normal" in="SourceGraphic" in2="effect6_dropShadow_520_24303" result="shape"/>
</filter>
</defs>
</svg>
