<svg width="45" height="45" viewBox="0 0 45 45" fill="none" xmlns="http://www.w3.org/2000/svg">
<g clip-path="url(#clip0_1199_40774)">
<path d="M11.4108 44.8408C8.73466 44.7191 7.28089 44.2738 6.31394 43.8966C5.03269 43.3978 4.11924 42.8039 3.15764 41.8437C2.19604 40.8834 1.60089 39.97 1.1047 38.6887C0.727554 37.7218 0.282195 36.268 0.16049 33.5918C0.0267483 30.699 0 29.831 0 22.502C0 15.173 0.0294231 14.3063 0.159152 11.4108C0.280857 8.73466 0.728891 7.28357 1.10337 6.31394C1.60222 5.0327 2.19737 4.11924 3.1563 3.1563C4.11656 2.19604 5.03002 1.59955 6.3126 1.10337C7.27955 0.726216 8.73332 0.280857 11.4095 0.159152C14.3037 0.0267483 15.173 0 22.4993 0C29.8284 0 30.695 0.0294231 33.5905 0.159152C36.2667 0.280857 37.7178 0.728891 38.6874 1.10337C39.9686 1.59955 40.8821 2.19604 41.8437 3.1563C42.8053 4.11657 43.3978 5.03136 43.8966 6.3126C44.2738 7.27955 44.7191 8.73332 44.8409 11.4095C44.9733 14.305 45 15.1716 45 22.5007C45 29.827 44.9733 30.6963 44.8409 33.5918C44.7191 36.268 44.2711 37.7218 43.8966 38.6887C43.3978 39.97 42.804 40.8834 41.8437 41.8437C40.8834 42.8039 39.9686 43.3978 38.6874 43.8966C37.7205 44.2738 36.2667 44.7191 33.5905 44.8408C30.6977 44.9732 29.8284 45 22.4993 45C15.173 45 14.3037 44.9746 11.4108 44.8408Z" fill="#006665"/>
<path d="M31.8033 18.1388C31.6454 18.7944 31.3302 19.3531 30.8577 19.7739C30.4338 20.1514 30.0987 20.576 29.8866 21.0905C29.7385 21.45 29.5988 21.8404 29.5808 22.223C29.5263 23.3871 29.4708 24.569 30.2428 25.5668C30.4083 25.7807 30.6027 25.972 30.7891 26.1685C31.0703 26.4651 31.3305 26.7701 31.5232 27.143C31.7842 27.6479 31.9318 28.1765 31.8977 28.7367C31.8091 30.1967 30.9453 31.3551 29.489 31.7448C28.5931 31.9846 27.7362 31.8158 26.9691 31.3311C26.134 30.8036 25.6932 29.9977 25.5621 28.9941C25.4433 28.0852 25.7343 27.311 26.2264 26.5981C26.4146 26.3256 26.6953 26.1209 26.9233 25.8752C27.4646 25.2921 27.7835 24.6079 27.8113 23.7953C27.8247 23.404 27.8661 23.0121 27.855 22.6217C27.831 21.7816 27.6393 20.9882 27.0923 20.3285C26.8954 20.0911 26.6641 19.883 26.4457 19.6645C26.0373 19.256 25.7811 18.7484 25.6297 18.2028C25.4589 17.5869 25.4876 16.9553 25.7032 16.3446C26.1072 15.2001 26.8924 14.4728 28.0608 14.2362C29.8108 13.8817 31.2729 14.8839 31.7888 16.5316C31.9477 17.039 31.9564 17.5872 31.8033 18.1388Z" fill="#F6EEDF"/>
<path d="M13.8973 31.5386C13.2238 31.1916 12.7237 30.6963 12.415 30.0103C12.0275 29.1492 12.0118 28.284 12.3576 27.401C12.5188 26.9894 12.7584 26.6444 13.0682 26.3444C13.4817 25.9439 13.869 25.5216 14.103 24.9831C14.2889 24.5554 14.414 24.1089 14.413 23.6343C14.4121 23.2373 14.4109 22.8404 14.4132 22.4434C14.4185 21.5299 14.0746 20.7586 13.4735 20.1019C13.0809 19.6729 12.6483 19.289 12.4057 18.7292C12.031 17.8646 12.0054 17.0078 12.3614 16.1422C12.8207 15.0255 13.6716 14.3637 14.8217 14.1977C15.9913 14.029 17.0037 14.4465 17.7538 15.3953C18.2916 16.0757 18.4883 16.8891 18.3989 17.7474C18.3304 18.4051 18.0766 19.008 17.6325 19.5095C17.3145 19.8686 16.9626 20.201 16.6791 20.5861C16.2815 21.1262 16.1369 21.7682 16.1196 22.4373C16.1103 22.7927 16.116 23.1485 16.1183 23.5041C16.125 24.5642 16.5132 25.462 17.2895 26.1583C18.1243 26.9069 18.5002 27.8473 18.3948 28.9449C18.2883 30.0529 17.757 30.924 16.7481 31.4543C16.2436 31.7195 15.7156 31.8899 15.1559 31.8349C14.7369 31.7936 14.3278 31.647 13.8973 31.5386Z" fill="#F6EEDF"/>
<path d="M19.7836 38.0871C18.8649 37.1041 18.6065 35.9711 19.0405 34.7145C19.1751 34.3246 19.4326 33.9561 19.7064 33.6439C20.116 33.1768 20.5675 32.752 20.8366 32.1731C21.065 31.6817 21.1766 31.1614 21.1803 30.6253C21.1917 28.9798 21.1844 27.3342 21.1845 25.6886C21.1845 25.1729 21.4571 24.8783 21.8955 24.8442C22.564 24.7924 22.8342 25.206 22.8371 25.6971C22.847 27.3839 22.8332 29.071 22.8443 30.7578C22.8499 31.6205 23.1508 32.3782 23.7193 33.0209C24.0196 33.3605 24.3761 33.6618 24.6172 34.04C25.3373 35.1695 25.344 36.3453 24.6683 37.5011C24.1541 38.3808 23.372 38.8687 22.3739 38.9939C21.3732 39.1195 20.5157 38.8149 19.7836 38.0871Z" fill="#F6EEDF"/>
<path d="M19.0888 11.4457C18.6249 10.1958 18.8153 9.07583 19.6535 8.07522C20.1661 7.4633 20.8267 7.13498 21.608 7.03096C22.6728 6.88919 23.5694 7.23752 24.2999 8.00892C24.8322 8.57098 25.0936 9.26329 25.1374 10.0544C25.1922 11.0444 24.8319 11.8614 24.1703 12.5392C23.8271 12.8909 23.5035 13.2407 23.258 13.6727C22.9965 14.1328 22.8507 14.6243 22.8466 15.1452C22.833 16.8734 22.8537 18.6019 22.8359 20.3301C22.8276 21.1302 22.1123 21.3633 21.545 21.0769C21.2885 20.9473 21.1845 20.6906 21.1846 20.3961C21.1853 18.7669 21.1874 17.1378 21.1838 15.5087C21.1822 14.7453 20.9975 14.0268 20.5912 13.3839C20.4405 13.1454 20.2333 12.9398 20.0331 12.7386C19.6568 12.3605 19.3021 11.9696 19.0888 11.4457Z" fill="#F6EEDF"/>
<path d="M37.1473 24.933C36.6927 25.3359 36.1695 25.5482 35.5961 25.5811C34.9726 25.6169 34.3908 25.4508 33.8834 25.0533C33.2108 24.5263 32.8626 23.8195 32.8891 22.9725C32.9207 21.9611 33.3672 21.1843 34.2966 20.7153C35.0271 20.3467 35.7667 20.3373 36.4847 20.6456C37.2634 20.9799 37.765 21.6161 37.9388 22.4665C38.1342 23.4232 37.861 24.2487 37.1473 24.933Z" fill="#F6EEDF"/>
<path d="M9.24105 20.5281C10.1058 20.8225 10.6872 21.3931 10.9517 22.2596C11.2449 23.2203 10.9439 24.3573 10.1019 25.0228C9.6421 25.3862 9.13357 25.556 8.58659 25.5805C8.10572 25.602 7.63313 25.4807 7.21047 25.2026C6.62316 24.8162 6.23502 24.2975 6.06891 23.599C5.80317 22.4816 6.32375 21.2943 7.32497 20.7395C7.93201 20.4032 8.56602 20.3826 9.24105 20.5281Z" fill="#F6EEDF"/>
</g>
<defs>
<clipPath id="clip0_1199_40774">
<rect width="45" height="45" fill="white"/>
</clipPath>
</defs>
</svg>
